PERFORMER "Rachmaninov - St.PPO·Jansons"
TITLE "Rachmaninov: Symphony No. 3 in A minor, Op. 44"
FILE "CDimageapenormal.ape" WAVE
  TRACK 01 AUDIO
    TITLE "Symphony No. 3 in A minor, Op.44: I. Lento-Allegro moderato-Allegro"
    INDEX 01 00:00:00
  TRACK 02 AUDIO
    TITLE "II. Adagio ma non troppo--Allegro vivace"
    INDEX 01 13:07:15
  TRACK 03 AUDIO
    TITLE "III. Allegro -- Allegro vivace"
    INDEX 01 25:21:48
  TRACK 04 AUDIO
    TITLE "Symphonic Dances, Op.45: I. Non allegro"
    INDEX 01 37:44:40
  TRACK 05 AUDIO
    TITLE "II. Andante con moto (Tempo di valse)"
    INDEX 01 49:05:48
  TRACK 06 AUDIO
    TITLE "III. Lento assai -- Allegro vivace"
    INDEX 01 58:35:58
